<?xml version="1.0" standalone="no"?>
<!DOCTYPE svg PUBLIC "-//W3C//DTD SVG 20010904//EN"
 "http://www.w3.org/TR/2001/REC-SVG-20010904/DTD/svg10.dtd">
<svg version="1.0" xmlns="http://www.w3.org/2000/svg"
 width="1024.000000pt" height="517.000000pt" viewBox="0 0 1024.000000 517.000000"
 preserveAspectRatio="xMidYMid meet">

<g transform="translate(0.000000,517.000000) scale(0.100000,-0.100000)"
fill="#604A99" stroke="none">
<path d="M2542 4031 c-24 -15 -371 -361 -388 -386 -34 -52 12 -124 81 -127 35
-1 44 5 138 100 55 56 102 102 105 102 3 0 3 -116 1 -257 -1 -142 -2 -320 -1
-396 2 -132 3 -139 27 -162 33 -34 92 -34 129 0 31 29 31 18 27 490 l-3 330
104 -102 c97 -97 106 -103 144 -103 22 0 48 6 57 13 23 17 46 65 40 85 -2 10
-93 109 -201 220 -200 206 -219 220 -260 193z"/>
<path d="M2055 3259 c-38 -17 -167 -71 -285 -120 -139 -58 -223 -99 -238 -115
l-23 -26 3 -489 c3 -473 4 -489 23 -508 17 -17 196 -97 610 -271 50 -20 159
-67 244 -104 85 -36 167 -66 183 -66 17 0 132 43 256 96 125 53 335 142 467
199 132 56 255 108 273 115 64 25 62 6 62 542 l0 487 -22 25 c-14 15 -86 51
-178 89 -85 36 -211 89 -280 118 -96 41 -137 53 -175 53 -50 0 -145 -31 -181
-59 -32 -26 -35 -24 396 -203 130 -54 142 -61 120 -70 -48 -19 -626 -264 -680
-289 l-54 -25 -61 25 c-51 21 -601 256 -675 289 -18 8 -21 12 -10 15 34 11
487 206 512 221 14 8 24 21 21 28 -7 19 -156 74 -200 74 -21 0 -69 -14 -108
-31z m50 -617 l370 -160 3 -351 2 -351 -52 23 c-29 13 -203 88 -387 167 -213
92 -336 151 -340 162 -3 9 -5 166 -3 348 2 309 4 332 20 327 9 -3 184 -77 387
-165z m1345 -180 l0 -349 -77 -31 c-108 -43 -558 -234 -638 -271 -37 -17 -68
-31 -71 -31 -2 0 -3 158 -2 352 l3 351 125 53 c182 76 365 156 535 232 50 22
98 40 108 41 16 1 17 -22 17 -347z"/>
<path d="M8098 3247 c-14 -7 -36 -21 -48 -32 -46 -41 -50 -71 -50 -345 0 -250
1 -258 23 -290 32 -48 69 -72 124 -80 89 -14 175 30 202 103 6 16 11 57 11 93
l0 64 -60 0 -60 0 0 -55 c0 -60 -22 -95 -60 -95 -58 0 -71 63 -67 331 2 138 4
159 21 178 11 12 31 21 46 21 42 0 60 -28 60 -93 l0 -57 60 0 60 0 0 75 c0 88
-14 122 -66 162 -30 23 -48 28 -103 30 -37 1 -78 -3 -93 -10z"/>
<path d="M3950 2875 l0 -376 56 3 55 3 0 370 -1 370 -55 3 -55 3 0 -376z"/>
<path d="M4160 2875 l0 -375 55 0 55 0 2 198 3 197 70 -197 70 -198 58 0 57 0
0 375 0 375 -61 0 -60 0 3 -200 c2 -109 0 -196 -3 -192 -3 4 -34 88 -69 187
-35 99 -65 186 -68 193 -2 7 -24 12 -58 12 l-54 0 0 -375z"/>
<path d="M4630 2875 l0 -377 108 4 c224 8 257 63 250 412 -5 216 -12 245 -81
300 -36 29 -42 30 -157 34 l-120 4 0 -377z m207 241 l28 -24 3 -184 c2 -100 1
-198 -3 -216 -9 -48 -37 -72 -85 -72 l-40 0 0 260 0 260 34 0 c22 0 45 -9 63
-24z"/>
<path d="M5068 2875 l2 -375 145 0 145 0 0 60 0 60 -87 0 -88 0 3 100 3 100
70 0 70 0 -3 58 -3 57 -70 3 -70 3 3 94 3 95 85 0 84 0 0 60 0 60 -147 0 -148
0 3 -375z"/>
<path d="M5440 2875 l0 -375 55 0 55 0 0 135 0 135 26 0 c85 0 162 57 184 137
25 87 15 206 -22 269 -33 56 -80 74 -198 74 l-100 0 0 -375z m184 244 c24 -19
26 -26 26 -102 0 -69 -3 -84 -22 -104 -13 -13 -33 -23 -50 -23 l-28 0 0 125
c0 125 0 125 24 125 13 0 35 -9 50 -21z"/>
<path d="M5842 2878 l3 -373 148 0 147 0 0 57 0 58 -85 0 -85 0 0 100 0 100
70 0 71 0 -3 58 -3 57 -67 3 -68 3 0 94 0 95 85 0 85 0 0 60 0 60 -150 0 -150
0 2 -372z"/>
<path d="M6220 2875 l0 -375 60 0 60 0 1 193 c0 121 4 185 9 172 5 -11 36 -96
68 -190 l60 -170 56 -3 56 -3 0 376 0 376 -57 -3 -58 -3 0 -193 c0 -105 -3
-192 -7 -192 -5 0 -8 5 -8 10 0 6 -21 68 -46 138 -25 70 -55 153 -66 185 l-21
57 -53 0 -54 0 0 -375z"/>
<path d="M6679 3246 c-2 -2 -3 -172 -1 -376 l2 -372 118 4 c152 6 199 30 237
120 22 54 22 434 0 500 -20 57 -71 107 -121 119 -39 8 -227 13 -235 5z m216
-130 c30 -30 36 -84 33 -286 -4 -190 -12 -210 -83 -210 l-45 0 0 260 0 260 35
0 c24 0 44 -8 60 -24z"/>
<path d="M7140 3240 c0 -5 0 -173 0 -372 l-1 -363 151 -3 150 -3 0 61 0 60
-90 0 -90 0 0 100 0 100 76 0 76 0 -4 58 -3 57 -72 3 -73 3 0 94 0 95 90 0 90
0 0 60 0 60 -150 0 c-93 0 -150 -4 -150 -10z"/>
<path d="M7522 2878 l3 -373 62 -3 63 -3 2 203 3 203 75 -202 75 -203 58 0 57
0 0 375 0 375 -60 0 -60 0 -1 -182 c-1 -101 0 -194 1 -208 1 -14 -1 -22 -4
-19 -4 4 -39 96 -79 205 l-72 199 -63 3 -62 3 2 -373z"/>
<path d="M8472 3019 l78 -232 0 -144 0 -144 58 3 57 3 5 165 c6 163 6 166 49
285 23 66 53 152 66 190 13 39 27 78 30 88 6 15 0 17 -64 17 -50 0 -71 -4 -71
-12 0 -18 -62 -241 -69 -250 -4 -4 -23 52 -42 125 l-36 132 -70 3 -70 3 79
-232z"/>
<path d="M3936 2153 c-3 -42 -6 -111 -6 -155 l0 -78 65 0 c84 0 118 17 139 70
34 86 10 202 -49 228 -14 7 -52 12 -84 12 l-58 0 -7 -77z m143 -4 c23 -38 22
-116 -3 -153 -12 -20 -25 -26 -51 -26 l-35 0 0 105 0 105 35 0 c29 0 39 -6 54
-31z"/>
<path d="M4228 2134 c-2 -53 -1 -123 0 -155 4 -55 6 -59 28 -59 l24 0 0 155 0
155 -24 0 c-24 0 -25 -2 -28 -96z"/>
<path d="M4552 2217 c-44 -25 -57 -56 -57 -142 0 -95 16 -128 73 -152 49 -20
106 -4 127 37 8 16 15 34 15 40 0 20 -41 10 -64 -17 -17 -20 -28 -25 -47 -20
-36 9 -54 50 -54 119 0 53 4 63 27 83 31 26 62 24 81 -6 7 -11 23 -19 40 -19
27 0 27 0 12 29 -8 17 -25 37 -37 45 -27 19 -84 20 -116 3z"/>
<path d="M4832 2217 c-37 -21 -54 -56 -59 -121 -12 -142 90 -228 186 -158 68
50 67 229 -3 277 -25 18 -93 19 -124 2z m93 -50 c51 -43 43 -171 -11 -196 -47
-21 -81 12 -89 88 -5 56 11 102 42 120 25 15 29 14 58 -12z"/>
<path d="M5090 2075 c0 -148 1 -155 20 -155 19 0 20 7 20 95 0 52 3 95 8 95 4
0 30 -42 57 -93 43 -78 54 -92 78 -95 l28 -3 -3 153 c-3 150 -3 153 -25 156
-23 3 -23 1 -23 -100 l0 -103 -18 30 c-10 17 -36 63 -57 103 -31 58 -43 72
-62 72 l-23 0 0 -155z"/>
<path d="M5370 2206 c0 -21 5 -25 38 -28 l37 -3 -3 -127 -2 -128 25 0 25 0 0
114 c0 63 3 121 6 130 4 11 19 16 45 16 35 0 39 3 39 25 l0 25 -105 0 c-105 0
-105 0 -105 -24z"/>
<path d="M5647 2083 c-26 -82 -47 -151 -47 -155 0 -5 11 -8 24 -8 18 0 25 8
32 33 9 31 12 32 65 35 55 3 56 3 65 -30 8 -26 16 -34 38 -36 15 -2 26 0 24 5
-3 4 -26 74 -52 156 -46 141 -49 147 -74 147 -26 0 -29 -6 -75 -147z m107 -20
c7 -21 4 -23 -33 -23 l-40 0 15 43 c26 75 25 74 39 37 7 -19 15 -45 19 -57z"/>
<path d="M5923 2075 l-2 -155 24 0 c23 0 25 4 25 43 0 23 3 93 7 155 l6 112
-29 0 -29 0 -2 -155z"/>
<path d="M6063 2075 c0 -141 2 -155 18 -155 18 0 26 38 32 155 l2 50 48 -91
c63 -121 69 -128 96 -119 21 6 21 10 19 158 -3 149 -3 152 -25 155 -22 3 -23
1 -24 -85 -1 -48 -1 -95 0 -103 1 -9 -6 -5 -18 10 -11 14 -21 29 -21 33 0 5
-18 40 -40 78 -32 54 -46 69 -64 69 l-23 0 0 -155z"/>
<path d="M6370 2075 l0 -155 85 0 c84 0 85 0 85 25 0 24 -2 25 -65 25 l-65 0
0 40 0 40 55 0 c52 0 55 1 55 25 0 24 -3 25 -55 25 l-55 0 0 40 0 40 65 0 c63
0 65 1 65 25 0 25 -1 25 -85 25 l-85 0 0 -155z"/>
<path d="M6620 2075 l0 -155 25 0 c24 0 25 3 25 60 0 58 1 60 26 60 22 0 29
-9 51 -60 23 -53 30 -60 54 -60 l28 0 -28 64 c-29 63 -29 64 -9 83 41 42 31
129 -18 152 -14 6 -54 11 -89 11 l-65 0 0 -155z m135 95 c14 -23 14 -58 0 -70
-8 -7 -31 -13 -50 -15 l-35 -2 0 49 0 48 39 0 c22 0 43 -5 46 -10z"/>
<path d="M7030 2075 l0 -155 85 0 c84 0 85 0 85 25 0 24 -3 25 -60 25 l-60 0
0 130 0 130 -25 0 -25 0 0 -155z"/>
<path d="M7260 2075 l0 -155 25 0 25 0 0 103 c0 56 3 126 6 155 l7 52 -32 0
-31 0 0 -155z"/>
<path d="M7410 2143 c0 -49 -3 -118 -7 -155 l-6 -68 76 0 c65 0 80 3 101 23
35 31 39 90 8 123 -15 16 -16 21 -5 29 7 6 16 27 19 47 5 30 2 41 -19 62 -23
23 -34 26 -97 26 l-70 0 0 -87z m133 16 c18 -29 1 -49 -43 -49 -39 0 -40 1
-40 36 0 34 1 35 36 32 21 -2 42 -10 47 -19z m-9 -112 c12 -9 17 -23 14 -42
-3 -28 -6 -30 -48 -30 -43 0 -45 1 -46 30 0 17 1 36 4 43 6 16 53 16 76 -1z"/>
<path d="M7680 2075 l0 -155 25 0 c24 0 25 3 25 60 0 56 1 60 23 60 19 0 29
-11 50 -60 23 -50 31 -60 52 -60 31 0 31 4 -1 74 -24 53 -25 58 -9 70 9 7 20
31 25 54 14 78 -24 112 -127 112 l-63 0 0 -155z m135 60 c0 -40 -1 -40 -42
-46 l-43 -5 0 48 0 49 43 -3 c42 -3 42 -3 42 -43z"/>
<path d="M7994 2083 c-26 -82 -49 -152 -51 -156 -3 -5 8 -7 23 -5 22 2 30 10
38 36 9 31 11 32 62 32 52 0 54 -1 69 -36 11 -28 19 -35 37 -32 27 4 29 -8
-31 170 -44 131 -47 138 -73 138 -25 0 -28 -6 -74 -147z m95 25 c7 -24 15 -49
17 -55 4 -9 -6 -13 -34 -13 l-39 0 15 55 c8 30 19 55 22 55 4 0 13 -19 19 -42z"/>
<path d="M8264 2075 c1 -153 1 -155 23 -155 20 0 22 6 25 58 3 52 5 57 28 60
22 2 28 -4 48 -58 21 -54 26 -60 52 -60 l29 0 -16 38 c-8 20 -21 49 -29 63
-12 24 -11 29 6 44 22 20 35 73 25 104 -14 46 -44 61 -120 61 l-72 0 1 -155z
m134 93 c7 -7 12 -21 12 -33 0 -31 -19 -45 -62 -45 l-38 0 0 45 0 45 38 0 c21
0 43 -5 50 -12z"/>
<path d="M8510 2225 c0 -3 18 -44 40 -91 34 -72 40 -96 40 -150 0 -62 1 -64
25 -64 24 0 25 3 25 55 0 43 9 75 41 146 28 63 38 94 31 101 -19 19 -38 1 -63
-56 -13 -31 -26 -56 -29 -56 -3 0 -17 27 -32 60 -22 51 -30 60 -52 60 -14 0
-26 -2 -26 -5z"/>
</g>
</svg>
